<svg xmlns="http://www.w3.org/2000/svg" viewBox="0 0 351.09 73.32"><defs><style>.cls-1{fill:#4e4d4d;}.cls-2{fill:#2a79be;}</style></defs><title>logo-vn_1</title><g id="Layer_2" data-name="Layer 2"><g id="Layer_1-2" data-name="Layer 1"><path class="cls-1" d="M6.84,67.14c0,.7-.36,3.57-3.33,3.57C.25,70.71,0,67.27,0,64.33c0-3.56,1-6.21,3.66-6.21,3,0,3.11,2.76,3.15,3.51H5.46c0-.41-.11-2.3-1.82-2.3-1.93,0-2.24,2.63-2.24,5,0,2.58.29,5.19,2.15,5.19,1.64,0,1.87-1.77,1.92-2.38Z"/><path class="cls-1" d="M17.39,64.3c0,4.17-1,6.41-3.64,6.41s-3.56-2.16-3.56-6.38,1.22-6.21,3.64-6.21S17.39,60.16,17.39,64.3Zm-2.9-9,1.8,2H14.87L13.75,56l-1.06,1.26H11.27l1.78-2Zm-2.92,9c0,3.49.71,5.24,2.24,5.24S16,67.83,16,64.31s-.7-5-2.21-5S11.57,61,11.57,64.3Z"/><path class="cls-1" d="M21.33,70.53V58.3H23c3.38,8.46,3.85,9.62,4,10.14h0c-.09-1.64-.11-3.48-.11-5.48V58.3h1.26V70.53H26.59c-3.51-8.9-3.95-10-4.09-10.5h0c.09,1.53.11,3.53.11,5.73v4.77Z"/><path class="cls-1" d="M39,70.53H38a8.57,8.57,0,0,1-.09-1.32,2.38,2.38,0,0,1-2.45,1.5c-2.64,0-3.35-2.74-3.35-6.29,0-4.21,1.3-6.3,3.79-6.3A3.08,3.08,0,0,1,39,61.45H37.69c0-.43-.12-2.16-1.85-2.16s-2.34,2-2.34,5.11.47,5.14,2.18,5.14,2-1.37,2-4V65H35.59V63.83H39Z"/><path class="cls-1" d="M50.08,59.49H47.36V58.3h6.79v1.19H51.43v11H50.08Z"/><path class="cls-1" d="M60.05,70.53V65.86a.78.78,0,0,0-.07-.3L56.86,58.3h1.51c.83,2.07,2,4.93,2.38,6,.43-1.19,1.62-4.09,2.41-6h1.42l-3.13,7.26a.8.8,0,0,0-.07.32v4.65Z"/><path class="cls-1" d="M74.52,59.49H71.8V58.3h6.79v1.19H75.87v11H74.52Z"/><path class="cls-1" d="M81.88,70.53V58.3h1.66c3.38,8.46,3.85,9.62,4,10.14h0c-.09-1.64-.11-3.48-.11-5.48V58.3h1.26V70.53H87.14c-3.51-8.9-3.94-10-4.09-10.5h0c.09,1.53.11,3.53.11,5.73v4.77Z"/><path class="cls-1" d="M93.11,58.3h1.35v5.17h4V58.3h1.35V70.53H98.42V64.66h-4v5.87H93.11Z"/><path class="cls-1" d="M104.16,58.3h1.35v5.17h4V58.3h1.35V70.53h-1.35V64.66h-4v5.87h-1.35Z"/><path class="cls-1" d="M122.13,59.49h-2.72V58.3h6.79v1.19h-2.72v11h-1.35Z"/><path class="cls-1" d="M129.49,58.3h1.35v5.17h4V58.3h1.35V70.53H134.8V64.66h-4v5.87h-1.35Z"/><path class="cls-1" d="M141.86,58.3v8.57c0,1.35.37,2.68,2,2.68s2-1.11,2-2.68V58.3h.45a1,1,0,0,0,.87-1.08,4.48,4.48,0,0,0-.11-.86h1.24a4.37,4.37,0,0,1,.09.86,1.85,1.85,0,0,1-1.21,1.87v7.8c0,2.23-.81,3.83-3.38,3.83s-3.33-1.51-3.33-3.74V58.3Z"/><path class="cls-1" d="M156.8,58.88a1,1,0,0,0,.63-1,4.48,4.48,0,0,0-.11-.86h1.24a3.72,3.72,0,0,1,.09.86,1.86,1.86,0,0,1-1.2,1.87,10.21,10.21,0,0,1,.79,4.58c0,4.17-1,6.41-3.64,6.41S151,68.55,151,64.33s1.22-6.21,3.63-6.21A3,3,0,0,1,156.8,58.88Zm-4.38,5.42c0,3.49.7,5.24,2.23,5.24s2.2-1.71,2.2-5.23-.7-5-2.21-5S152.42,61,152.42,64.3Z"/><path class="cls-1" d="M162.18,70.53V58.3h1.65c3.39,8.46,3.86,9.62,4,10.14h0c-.09-1.64-.11-3.48-.11-5.48V58.3H169V70.53h-1.59c-3.51-8.9-3.94-10-4.08-10.5h0c.09,1.53.11,3.53.11,5.73v4.77Z"/><path class="cls-1" d="M179.87,70.53h-1a8.57,8.57,0,0,1-.09-1.32,2.38,2.38,0,0,1-2.45,1.5c-2.65,0-3.35-2.74-3.35-6.29,0-4.21,1.3-6.3,3.78-6.3a3.09,3.09,0,0,1,3.17,3.33h-1.35c0-.43-.12-2.16-1.85-2.16s-2.34,2-2.34,5.11.46,5.14,2.17,5.14,2-1.37,2-4V65h-2.13V63.83h3.44Z"/><path class="cls-1" d="M196.76,65.32c0-2.28,0-4.57.07-5.87h0c-.45,2.13-1.56,7.21-2.54,11.08H193c-.72-3.37-1.89-8.84-2.34-11.1h-.06c.07,1.43.13,4.13.13,6.22v4.88h-1.26V58.3h2c1,3.84,1.94,8.5,2.23,10.1h0c.23-1.33,1.42-6.41,2.39-10.1h2V70.53h-1.31Z"/><path class="cls-1" d="M203.67,66.66l-.9,3.87h-1.34l3-12.23h1.74l3.05,12.23h-1.44l-.9-3.87Zm2.9-1.21c-.71-3-1.17-4.92-1.34-5.89h0c-.18,1.06-.67,3.26-1.28,5.89Zm-2,7.87V71.63H206v1.69Z"/><path class="cls-1" d="M213.82,58.3V70.53h-1.35V58.3Z"/><path class="cls-1" d="M223.83,63.5V58.3h2.71c2.83,0,4.09,2,4.09,5.8,0,4.14-1.13,6.43-4.28,6.43h-2.52V64.68h-1.25V63.5Zm1.35,0h2.43v1.18h-2.43v4.69h1.11c2.25,0,3-1.76,3-5.23,0-3.25-.83-4.69-2.94-4.69h-1.13Z"/><path class="cls-1" d="M235.78,66.66l-.9,3.87h-1.33L236.5,58.3h1.75l3,12.23h-1.44l-.9-3.87Zm2.32-10.95L240,57.47h-1.43l-1.17-1-1.13,1h-1.42l1.85-1.76Zm.58,9.74c-.7-3-1.17-4.92-1.33-5.89h0c-.18,1.06-.67,3.26-1.28,5.89Zm1.24-11.2L241.47,56h-1.21l-2-1.75Z"/><path class="cls-1" d="M245.77,58.3v8.57c0,1.35.38,2.68,2,2.68s2-1.11,2-2.68V58.3h1.33v8.59c0,2.23-.81,3.83-3.39,3.83S244.4,69.21,244.4,67V58.3Z"/><path class="cls-1" d="M262.33,59.49h-2.72V58.3h6.79v1.19h-2.72v11h-1.35Z"/><path class="cls-1" d="M271,58.3v8.57c0,1.35.38,2.68,2,2.68s2-1.11,2-2.68V58.3h.46a1,1,0,0,0,.86-1.08,3.81,3.81,0,0,0-.11-.86h1.24a3.72,3.72,0,0,1,.09.86,1.86,1.86,0,0,1-1.2,1.87v7.8c0,2.23-.81,3.83-3.39,3.83s-3.33-1.51-3.33-3.74V58.3Z"/><path class="cls-1" d="M288,70.53l-3-12.23h1.45l1.35,5.8c.39,1.71.86,3.83,1,5h0c.14-1,.74-3.27,1.15-5l1.4-5.8h1.39l-3.15,12.23Z"/><path class="cls-1" d="M297.39,58.3V70.53H296V58.3Z"/><path class="cls-1" d="M307.22,64.66h-4.09v4.68h4.54l-.18,1.19H301.8V58.3h5.62v1.19h-4.29v4h4.09Zm-1.94-8.77,1.9,1.51h-1.47l-1.14-.85-1.11.85H302l1.87-1.51Zm-3-.58v-.18c0-1,.49-1.33,1.16-1.33.88,0,1.71.58,2.3.58.23,0,.43-.08.43-.44V53.8H307V54c0,1-.45,1.31-1.15,1.31s-1.75-.57-2.34-.57c-.24,0-.4.14-.4.45v.12Z"/><path class="cls-1" d="M311.14,70.53V58.3h1.66c3.39,8.46,3.85,9.62,4,10.14h0c-.09-1.64-.1-3.48-.1-5.48V58.3H318V70.53H316.4c-3.51-8.9-3.94-10-4.09-10.5h0c.09,1.53.1,3.53.1,5.73v4.77Z"/><path class="cls-1" d="M329.29,59.49h-2.72V58.3h6.79v1.19h-2.72v11h-1.35Z"/><path class="cls-1" d="M336.87,66.66l-.9,3.87h-1.34l3-12.23h1.74l3.05,12.23h-1.44l-.9-3.87Zm2.32-11.26,1.8,2h-1.42l-1.12-1.26-1.06,1.26H336l1.78-2Zm.57,10.05c-.7-3-1.17-4.92-1.33-5.89h0c-.18,1.06-.67,3.26-1.28,5.89Z"/><path class="cls-1" d="M346.55,70.53V65.86a.78.78,0,0,0-.07-.3l-3.12-7.26h1.52c.82,2.07,2,4.93,2.37,6,.43-1.19,1.62-4.09,2.42-6h1.42L348,65.56a.65.65,0,0,0-.08.32v4.65Z"/><path class="cls-2" d="M83.68,29.94,86.56.5h9.61l2.76,29.44L101.68.5h10.2l-5.63,46.67H93.89l-2.58-22.5-2.46,22.5H76.28L70.74.5H80.82Z"/><path class="cls-2" d="M121.41,47.17V.5H142V9.55H131.89v9.11h9.73v8.76h-9.73V38.06h10.79v9.11Z"/><path class="cls-2" d="M165.42,47.7q-7.2,0-10.24-3.29t-3.06-10.13V29.71h10.19V33.9c0,3,.82,4.51,2.46,4.51a2.13,2.13,0,0,0,1.81-.88,3.88,3.88,0,0,0,.66-2.32,9,9,0,0,0-.52-3.16,8.48,8.48,0,0,0-1.55-2.45,42.89,42.89,0,0,0-3.41-3.2l-4.37-3.78q-5.28-4.55-5.27-10.26,0-6.21,3.18-9.24t8.74-3h1.82a14.1,14.1,0,0,1,3.69.66,10.66,10.66,0,0,1,4,2.19,9.46,9.46,0,0,1,2.64,4.28,22.36,22.36,0,0,1,.88,6.7H166.62l-.06-2.82a2.22,2.22,0,0,0-2.11-2,2.57,2.57,0,0,0-1.74.63,2.05,2.05,0,0,0-.72,1.63c0,1.34,1,2.78,2.9,4.33l6.24,5a22.43,22.43,0,0,1,2.65,2.51,13.88,13.88,0,0,1,1.79,2.52c.4.74.77,1.5,1.11,2.27a10.47,10.47,0,0,1,.57,2.2c.11.79.17,1.39.19,1.79s0,.92,0,1.56a30.35,30.35,0,0,1-.32,4.47A16.87,16.87,0,0,1,176,41.89,8.79,8.79,0,0,1,170.36,47,15.07,15.07,0,0,1,165.42,47.7Z"/><path class="cls-2" d="M185.76.5h22.56v9h-6.13V47.17H191.88V9.49h-6.12Z"/><path class="cls-2" d="M242.68,27.07v8.82q0,6.09-3.46,9t-9.66,2.86a12.78,12.78,0,0,1-9-3.15q-3.45-3.15-3.46-9V14q0-6.93,3.07-10.39t9.6-3.49a17.77,17.77,0,0,1,4.91.66,13,13,0,0,1,4,1.94,9,9,0,0,1,2.74,3.39,11.12,11.12,0,0,1,1,4.82v8.23h-10.2V13.74q0-4.19-2.46-4.19a2,2,0,0,0-1.93.92,5.55,5.55,0,0,0-.47,2.57V35.1a4.54,4.54,0,0,0,.66,2.49,2,2,0,0,0,1.74,1,2.36,2.36,0,0,0,1.73-.77,4.07,4.07,0,0,0,.73-2.77v-8Z"/><path class="cls-2" d="M252.84,34.57V12.33c0-3.88,1-6.9,3.15-9S261.24.06,265.46,0s7.56,1.16,9.66,3.3,3.15,5.15,3.15,9V34.57a17.74,17.74,0,0,1-.72,5.17,12.51,12.51,0,0,1-2.18,4.15,9.54,9.54,0,0,1-4,2.81,14.51,14.51,0,0,1-5.76.91,15,15,0,0,1-5.93-.91,9.25,9.25,0,0,1-4-2.81,12.18,12.18,0,0,1-2.19-4.15A17,17,0,0,1,252.84,34.57Zm12.71,3.9a2.21,2.21,0,0,0,1-.22,1.71,1.71,0,0,0,.68-.68c.14-.28.27-.56.39-.86a5,5,0,0,0,.21-1.1c0-.46.06-.81.07-1s0-.59,0-1V12.34a5.31,5.31,0,0,0-.09-.79c-.05-.19-.11-.42-.17-.7a2,2,0,0,0-.28-.65c-.12-.15-.26-.3-.41-.47a1.54,1.54,0,0,0-.59-.35,3.06,3.06,0,0,0-.79-.1,2.75,2.75,0,0,0-1.07.2,1.54,1.54,0,0,0-.72.66c-.17.31-.32.58-.44.82a3.17,3.17,0,0,0-.23,1.09c0,.48-.06.82-.06,1V34.19a7.54,7.54,0,0,0,.07,1.11,4.32,4.32,0,0,0,.22,1.19,8.06,8.06,0,0,0,.42.95,1.74,1.74,0,0,0,.72.75A2.19,2.19,0,0,0,265.55,38.47Z"/></g></g></svg>