<svg xmlns="http://www.w3.org/2000/svg" viewBox="0 0 922.27 251.99"><defs><style>.cls-1{fill:#7fbade;}.cls-2{fill:#0178bc;}.cls-3{fill:#0178bd;}.cls-4{fill:#087cbf;}.cls-5{fill:#d5d4d9;}.cls-6{fill:none;stroke:#0178bd;stroke-miterlimit:10;stroke-width:5px;}</style></defs><title>ami</title><g id="Layer_2" data-name="Layer 2"><g id="Layer_1-2" data-name="Layer 1"><path class="cls-1" d="M1,244.34H0v-46a3.35,3.35,0,0,1,1,0Z"/><path class="cls-2" d="M613.84,3.75v47.3H597.71V197.11h15.84v47.31H539.19V107.94l-1-.26L479.39,216l-58.7-108-1.32.33V244.45h-74.2v-47h15.49V51.34H345.17V3.41h4.75c21.67,0,43.33.12,65-.11,3.93,0,5.8,1.24,7.58,4.65q27,51.63,54.28,103.07c.76,1.44,1.55,2.85,2.64,4.84L498.1,80.48Q517.49,43.73,536.84,7C538,4.7,539.12,3.34,542,3.34c23.33.12,46.66.07,70,.08A14.48,14.48,0,0,1,613.84,3.75Z"/><path class="cls-3" d="M1,244.34v-46l19.48-.62C34.68,132.81,48.82,68.25,63,3.59H164.11c1.61,7.1,3.26,14.17,4.8,21.26q10.78,49.31,21.52,98.61c5.13,23.47,10.44,46.91,15.35,70.43.75,3.57,2.21,4.22,5.29,4.12,4.82-.17,9.64,0,14.88,0v46.33H153c-3.77-19.13-7.62-38.71-11.53-58.54H85.81c-.87,4.12-1.84,8.42-2.68,12.75Q79,220,75,241.52c-.39,2.11-1.15,3.24-3.52,3.22-23.32-.12-46.65-.16-70-.24A1.6,1.6,0,0,1,1,244.34ZM114.15,45.5l-1.2.22c-6.51,33.55-13,67.11-19.59,100.89h40.48C127.22,112.61,120.69,79.06,114.15,45.5Z"/><path class="cls-3" d="M735.43,3.5h95.18V51.17h-15.4V197.34h15.56v47.08H735.31v-47h15.51v-146H735.43Z"/><path class="cls-4" d="M882.89,31.78v13l-4.62.47V13.86c5.58,0,11.15-.3,16.68.11,3.39.24,5.53,3.07,6,6.37.66,4.49-.59,7.63-3.87,9.41-1.33.62-2.69,1.18-4.08,1.67l8.26,13c-3,1.45-4.66.7-6-1.75-1.63-2.88-3.65-5.55-5.23-8.46S886.43,30.42,882.89,31.78Zm.24-3.92c3.54-.22,6.52-.18,9.42-.64a4.62,4.62,0,0,0,4-4.93c0-2.57-1.35-4.53-4-4.87-3-.38-6.12-.43-9.41-.64Z"/><circle class="cls-5" cx="285.56" cy="219.49" r="32.5"/><circle class="cls-5" cx="674.58" cy="219.49" r="32.5"/><circle class="cls-5" cx="889.77" cy="219.49" r="32.5"/><circle class="cls-6" cx="889.77" cy="29.5" r="27"/></g></g></svg>